# xmcd
# 
# Track frame offsets:
#     150
#     10389
#     24585
#     34877
#     46995
#     60219
#     82156
#     92383
#     102053
#     113851
#     126504
#     138698
#     148224
#     157245
#     170640
#     182677
# 
# Disc length: 2602
# 
# Revision: 3
# Processed by: cddbd v1.5.2PL0 Copyright (c) Steve Scherf et al.
# Submitted via: fre:ac v1.0.17
# 
DISCID=e10a2810
DTITLE=Various Artist - Country Songs Cd2
DYEAR=2006
DGENRE=Country
TTITLE0=If I Were A Carpenter - Johnny Cash
TTITLE1=Annie's Song - John Denver
TTITLE2=You're Looking At Country - Loretta Lynn
TTITLE3=Letter Of Heaven - Dolly Parton
TTITLE4=Where Do I Go From Here - Don Williams 
TTITLE5=City Of New Orleans - Willie Nelson
TTITLE6=Some Birds - Anne Murray
TTITLE7=Why Me Lord - Johnny Cash
TTITLE8=Ease The Want In Me - Billy Joe Spears
TTITLE9=Help Me Make It Trough The Night - Charley Pride
TTITLE10=Folsom Prison Blues - Johnny Cash
TTITLE11=I'm Getting Better - Jim Reeves
TTITLE12=Keep On Truckin' - Dave Dudley
TTITLE13=Almost Persuaded - George Jones
TTITLE14=Misty Blue - Billy Joe Spears
TTITLE15=Coming Apart - Don Williams
EXTD=
EXTT0=
EXTT1=
EXTT2=
EXTT3=
EXTT4=
EXTT5=
EXTT6=
EXTT7=
EXTT8=
EXTT9=
EXTT10=
EXTT11=
EXTT12=
EXTT13=
EXTT14=
EXTT15=
PLAYORDER=
